<?xml version="1.0" encoding="utf-8"?>
<!-- Generator: Adobe Illustrator 24.1.1, SVG Export Plug-In . SVG Version: 6.00 Build 0)  -->
<svg version="1.1" id="Layer_1" xmlns="http://www.w3.org/2000/svg" xmlns:xlink="http://www.w3.org/1999/xlink" x="0px" y="0px"
	 viewBox="0 0 512 512" style="enable-background:new 0 0 512 512;" xml:space="preserve">
<g>
	<path d="M426.7,0H85.3C38.2,0.2,0.2,38.3,0,85.3v341.3C0,473.6,38.4,512,85.3,512h341.3c46.9,0,85.3-38.4,85.3-85.3V85.3
		C512,38.4,473.6,0,426.7,0z M380,359.6c-4.3,10.3-11,19.3-19.7,26.3c-9,7.3-20.3,13.3-34.3,17.5c-13.9,4.3-30.5,6.5-49.7,6.5H139.1
		V111.3h145.1c26.8,0,48.3,6,64.4,18.3c16.3,12.3,24.3,30.8,24.3,55.7c0,15.1-3.7,27.9-11,38.6c-7.4,10.7-17.9,18.9-31.6,24.7v1
		c18.3,3.8,32.3,12.5,41.6,25.9c9.3,13.4,14.1,30.4,14.1,50.9c0,11.5-2.3,22.4-6.4,32.6l0.5,0.6V359.6z M320.7,286
		c-8.7-8-21-11.9-36.8-11.9h-92.3v93.2h92.5c15.8,0,28.2-4.1,36.9-12.3s13.2-20,13.2-35c-0.2-14.8-4.4-26.2-13.2-33.9L320.7,286
		L320.7,286z M308,225.7c8.4-7.2,12.6-17.4,12.6-30.8c0-15-3.8-25.7-11.3-31.7c-7.5-6.1-18.3-9.3-32.6-9.3h-85.3v82.4h85.3
		C289.1,236.3,299.8,232.7,308,225.7L308,225.7z"/>
</g>
</svg>
